<svg width="20" height="20" viewBox="0 0 20 20" fill="none" xmlns="http://www.w3.org/2000/svg">
<path fill-rule="evenodd" clip-rule="evenodd" d="M14.0968 14.6681C12.718 15.7179 10.985 16.3411 9.11108 16.3411C4.65723 16.3411 1 12.8204 1 8.42057C1 4.02074 4.65723 0.5 9.11108 0.5C13.5649 0.5 17.2222 4.02074 17.2222 8.42057C17.2222 10.2526 16.5881 11.9322 15.5265 13.2687L18.6974 16.3546C19.0932 16.7398 19.1018 17.3729 18.7166 17.7687C18.3315 18.1645 17.6984 18.1731 17.3026 17.7879L14.0968 14.6681ZM3 8.42057C3 5.17616 5.71025 2.5 9.11108 2.5C12.5119 2.5 15.2222 5.17616 15.2222 8.42057C15.2222 10.0004 14.5796 11.4454 13.5275 12.5124C13.4888 12.542 13.4517 12.5748 13.4167 12.6108C13.3944 12.6336 13.3735 12.6573 13.3539 12.6816C12.2586 13.7069 10.7667 14.3411 9.11108 14.3411C5.71025 14.3411 3 11.665 3 8.42057Z" fill="#2A2A2A"/>
</svg>
